<svg width="594" height="170" viewBox="0 0 594 170" fill="none" xmlns="http://www.w3.org/2000/svg">
<path d="M144.918 155.585H90.749L82.3061 131.563H62.6086L54.1658 155.585H0L72.459 0L144.918 155.585ZM80.0203 96.6393C80.0203 94.5489 79.2573 92.6997 77.7345 91.0992C76.208 89.4949 74.4485 88.6928 72.459 88.6928C70.4658 88.6928 68.7064 89.4949 67.1836 91.0992C65.6571 92.6997 64.894 94.5489 64.894 96.6393C64.894 98.7335 65.6571 100.583 67.1836 102.183C68.7064 103.787 70.4658 104.586 72.459 104.586C74.4485 104.586 76.208 103.787 77.7345 102.183C79.2573 100.583 80.0203 98.7335 80.0203 96.6393ZM243.932 108.284L233.382 155.585H149.668V15.1536H202.426V108.284H243.932ZM349.452 108.284L338.901 155.585H255.187V15.1536H307.949V108.284H349.452ZM463.77 108.284L451.811 155.585H360.711V15.1536H451.811L463.77 62.4577H413.472C411.36 62.4577 410.423 64.5283 410.656 66.5C410.894 68.223 411.827 70.0015 413.472 70.0015H443.369V100.74H413.472C411.597 100.74 410.656 102.651 410.656 104.5C410.656 106.349 411.597 108.284 413.472 108.284L463.77 108.284ZM593.21 170L531.306 118.63V155.585H478.192V6.65403L540.453 52.109V15.154H593.211L593.21 170Z" fill="#233A6C"/>
</svg>
